<svg width="80" height="64" viewBox="0 0 80 64" fill="none" xmlns="http://www.w3.org/2000/svg">
<path d="M39.5886 31.1887L20.6782 15.6445L1.72043 31.224V59.5334H20.6782" stroke="white" stroke-width="2.0155" stroke-linecap="round" stroke-linejoin="round"/>
<path d="M15.2688 44.7568C15.2688 47.52 17.2559 49.427 19.8753 49.427C22.4946 49.427 24.4817 47.4551 24.4817 44.7568C24.4817 41.9935 22.4946 40.0865 19.8753 40.0865C17.1914 40.0865 15.2688 42.1232 15.2688 44.7568ZM16.4301 44.7568C16.4301 42.6422 17.914 41.1243 19.8753 41.1243C21.8107 41.1243 23.3204 42.6422 23.3204 44.7568C23.3204 46.8065 21.9398 48.3892 19.8753 48.3892C17.9398 48.3892 16.4301 46.8195 16.4301 44.7568ZM25.3263 44.4973H27.4553V49.2973H28.4876V44.4973H30.6166V43.4595H25.3263V44.4973ZM36.106 43.4595H35.0737V46.1189C34.8157 46.3005 34.3253 46.4822 33.7447 46.4822C32.9576 46.4822 32.4931 46.0411 32.4931 45.107V43.4595H31.3963V45.2238C31.3963 46.7286 32.0673 47.4551 33.4608 47.4551C34.106 47.4551 34.6866 47.2735 35.0737 47.027V49.2973H36.106V43.4595ZM39.0018 49.2973L42.3566 44.9513V49.2973H43.3889V43.4595H42.3566L39.0018 47.8054V43.4595H37.9695V49.2973H39.0018ZM46.2976 49.2973L49.6525 44.9513V49.2973H50.6847V43.4595H49.6525L46.2976 47.8054V43.4595H45.2654V49.2973H46.2976ZM46.0912 40.4757C46.0912 41.5005 46.7751 42.2919 48.0525 42.2919C49.2138 42.2919 49.9622 41.5005 49.9622 40.4757H48.9944C48.9428 41.1762 48.6202 41.5005 48.0525 41.5005C47.4331 41.5005 47.1105 41.1762 47.0589 40.4757H46.0912ZM54.724 50.9838H55.7562V49.2973H62.7756V50.9838H63.8078V48.2595H62.582V40.2162H57.2659L57.1756 42.0324C56.982 45.8335 56.0659 47.7924 55.6917 48.2595H54.724V50.9838ZM58.2078 42.8757L58.324 41.2541H61.4852V48.2595H56.9046C57.2401 47.8443 57.9885 46.0022 58.2078 42.8757ZM64.46 46.3784C64.46 48.1297 65.6987 49.427 67.5567 49.427C69.4148 49.427 70.6535 48.1297 70.6535 46.3784C70.6535 44.627 69.4148 43.3297 67.5567 43.3297C65.6987 43.3297 64.46 44.627 64.46 46.3784ZM65.5567 46.3784C65.5567 45.1459 66.4212 44.3027 67.5567 44.3027C68.718 44.3027 69.5567 45.1589 69.5567 46.3784C69.5567 47.6238 68.718 48.4541 67.5567 48.4541C66.3954 48.4541 65.5567 47.5978 65.5567 46.3784ZM72.1429 49.2973H73.1751V45.0422L75.2655 47.7535H75.3042L77.3171 45.0422V49.2973H78.3493V43.4595H77.4332L75.3171 46.3524L73.0848 43.4595H72.1429V49.2973Z" fill="white"/>
<path d="M33.2938 59.6757H36.9084V60.6746H37.9303V58.6577H37.2206V55.3946H36.1325V58.6577H34.3819V55.3946H33.2938V59.6757ZM43.9987 58.477C43.7527 58.6768 43.3174 58.867 42.797 58.867C42.1252 58.867 41.6142 58.515 41.5196 57.8681H44.5948C44.6422 57.7064 44.6611 57.5446 44.6611 57.2783C44.6611 56.0796 43.7432 55.2899 42.6456 55.2899C41.2452 55.2899 40.3935 56.2889 40.3935 57.5351C40.3935 58.8861 41.3114 59.7803 42.6834 59.7803C43.2796 59.7803 43.8852 59.6091 44.311 59.2476L43.9987 58.477ZM42.5983 56.2032C43.2228 56.2032 43.5824 56.6123 43.5729 57.1356H41.4817C41.5953 56.5743 41.9454 56.2032 42.5983 56.2032ZM47.5428 61.5784H48.631V59.571C48.877 59.7137 49.246 59.7803 49.6245 59.7803C50.9871 59.7803 51.8766 58.7719 51.8766 57.4685C51.8766 56.2032 51.1196 55.2899 49.9462 55.2899C49.3974 55.2899 48.8959 55.5183 48.631 55.8037V55.3946H47.5428V61.5784ZM49.6056 56.3174C50.3247 56.3174 50.7222 56.8121 50.7222 57.4971C50.7222 58.2106 50.2869 58.7624 49.5299 58.7624C49.1703 58.7624 48.9243 58.7053 48.631 58.515V56.7836C48.8959 56.4886 49.2366 56.3174 49.6056 56.3174ZM58.8553 55.3946H57.4833L55.9504 57.5161L57.6347 59.6757H59.054L57.2183 57.4305L58.8553 55.3946ZM54.8243 59.6757H55.9125V55.3946H54.8243V59.6757ZM61.4344 57.5351C61.4344 58.8195 62.3428 59.7803 63.7527 59.7803C65.1626 59.7803 66.071 58.8195 66.071 57.5351C66.071 56.2508 65.1626 55.2899 63.7527 55.2899C62.3428 55.2899 61.4344 56.2508 61.4344 57.5351ZM62.5983 57.5351C62.5983 56.7931 63.1093 56.3174 63.7527 56.3174C64.4151 56.3174 64.9166 56.8121 64.9166 57.5351C64.9166 58.2772 64.4245 58.7624 63.7527 58.7624C63.0903 58.7624 62.5983 58.2487 62.5983 57.5351ZM69.0179 59.6757C69.4059 59.6757 70.1818 59.7232 70.7117 59.7232C72.0837 59.7232 72.7366 59.2761 72.7366 58.4294C72.7366 57.9347 72.4243 57.5827 71.8282 57.44V57.421C72.254 57.3544 72.6231 56.9834 72.6231 56.4696C72.6231 55.6895 71.9323 55.347 70.6927 55.347C70.0304 55.347 69.3869 55.3851 69.0179 55.3946V59.6757ZM70.7874 57.8586C71.2983 57.8586 71.5917 58.0298 71.5917 58.3533C71.5917 58.6482 71.3078 58.848 70.8252 58.848C70.5603 58.848 70.2669 58.8195 70.1061 58.8099V57.8586H70.7874ZM70.7874 56.2318C71.1942 56.2318 71.4686 56.384 71.4686 56.6979C71.4686 57.0309 71.1753 57.1926 70.8157 57.1926H70.1061V56.2508C70.2196 56.2413 70.5319 56.2318 70.7874 56.2318ZM75.7727 59.6757H77.3624C78.8102 59.6757 79.3211 58.867 79.3211 58.0489C79.3211 57.2878 78.8953 56.5648 77.4476 56.5648H76.8609V55.3946H75.7727V59.6757ZM77.3529 57.44C77.9396 57.44 78.1667 57.6969 78.1667 58.0869C78.1667 58.477 77.9302 58.7243 77.3435 58.7243H76.8609V57.44H77.3529Z" fill="white"/>
<path d="M20.7597 15.6445V1.72973" stroke="white" stroke-width="2.0155" stroke-linecap="round" stroke-linejoin="round"/>
<path d="M16.5987 5.78141H24.735" stroke="white" stroke-width="2.0155" stroke-linecap="round" stroke-linejoin="round"/>
</svg>
