<svg width="250" height="40" viewBox="0 0 250 40" fill="none" xmlns="http://www.w3.org/2000/svg">
<path fill-rule="evenodd" clip-rule="evenodd" d="M32.76 13.78C32.944 13.16 32.76 12.708 31.876 12.708H28.96C28.22 12.708 27.876 13.1 27.692 13.532C27.692 13.532 26.208 17.148 24.108 19.496C23.428 20.176 23.12 20.392 22.748 20.392C22.564 20.392 22.296 20.176 22.296 19.556V13.78C22.296 13.04 22.08 12.708 21.464 12.708H16.88C16.416 12.708 16.136 13.052 16.136 13.38C16.136 14.084 17.188 14.244 17.296 16.224V20.52C17.296 21.46 17.124 21.632 16.756 21.632C15.768 21.632 13.364 18 11.936 13.844C11.656 13.036 11.376 12.712 10.632 12.712H7.716C6.884 12.712 6.716 13.104 6.716 13.536C6.716 14.308 7.704 18.14 11.32 23.208C13.732 26.668 17.124 28.544 20.216 28.544C22.068 28.544 22.3 28.128 22.3 27.408V24.792C22.3 23.96 22.476 23.792 23.064 23.792C23.496 23.792 24.24 24.008 25.968 25.676C27.944 27.652 28.272 28.54 29.384 28.54H32.3C33.132 28.54 33.548 28.124 33.308 27.3C33.044 26.48 32.1 25.292 30.848 23.88C30.168 23.076 29.148 22.212 28.84 21.78C28.408 21.224 28.532 20.976 28.84 20.484C28.836 20.484 32.388 15.48 32.76 13.78Z" fill="white"/>
<path d="M95.2 40V24.508H100.4L101.18 18.472H95.2V14.616C95.2 12.868 95.684 11.676 98.192 11.676H101.388V6.28C100.836 6.208 98.936 6.044 96.728 6.044C92.12 6.044 88.964 8.856 88.964 14.024V18.476H83.752V24.512H88.964V40H95.2Z" fill="white"/>
<path d="M160 8.808C163.644 8.808 164.076 8.82 165.516 8.888C166.848 8.948 167.572 9.172 168.052 9.36C168.688 9.608 169.144 9.904 169.62 10.38C170.096 10.856 170.392 11.312 170.64 11.948C170.828 12.428 171.048 13.152 171.112 14.484C171.176 15.924 171.192 16.356 171.192 20C171.192 23.644 171.18 24.076 171.112 25.516C171.052 26.848 170.828 27.572 170.64 28.052C170.392 28.688 170.096 29.144 169.62 29.62C169.144 30.096 168.688 30.392 168.052 30.64C167.572 30.828 166.848 31.048 165.516 31.112C164.076 31.176 163.644 31.192 160 31.192C156.356 31.192 155.924 31.18 154.484 31.112C153.152 31.052 152.428 30.828 151.948 30.64C151.312 30.392 150.856 30.096 150.38 29.62C149.904 29.144 149.608 28.688 149.36 28.052C149.172 27.572 148.952 26.848 148.888 25.516C148.824 24.076 148.808 23.644 148.808 20C148.808 16.356 148.82 15.924 148.888 14.484C148.948 13.152 149.172 12.428 149.36 11.948C149.608 11.312 149.904 10.856 150.38 10.38C150.856 9.904 151.312 9.608 151.948 9.36C152.428 9.172 153.152 8.952 154.484 8.888C155.924 8.82 156.356 8.808 160 8.808ZM160 6.348C156.292 6.348 155.828 6.364 154.372 6.432C152.92 6.5 151.928 6.728 151.056 7.068C150.16 7.412 149.396 7.88 148.64 8.64C147.88 9.4 147.416 10.16 147.064 11.06C146.728 11.928 146.496 12.92 146.428 14.376C146.36 15.832 146.344 16.296 146.344 20.004C146.344 23.712 146.36 24.176 146.428 25.632C146.496 27.084 146.724 28.076 147.064 28.948C147.412 29.84 147.88 30.604 148.64 31.36C149.4 32.12 150.16 32.584 151.06 32.936C151.928 33.272 152.92 33.504 154.376 33.572C155.832 33.64 156.296 33.656 160.004 33.656C163.712 33.656 164.176 33.64 165.632 33.572C167.084 33.504 168.076 33.276 168.948 32.936C169.84 32.588 170.604 32.12 171.36 31.36C172.12 30.6 172.584 29.84 172.936 28.94C173.272 28.072 173.504 27.08 173.572 25.624C173.64 24.168 173.656 23.704 173.656 19.996C173.656 16.288 173.64 15.824 173.572 14.368C173.504 12.916 173.276 11.924 172.936 11.052C172.588 10.16 172.12 9.396 171.36 8.64C170.6 7.88 169.84 7.416 168.94 7.064C168.072 6.728 167.08 6.496 165.624 6.428C164.172 6.364 163.708 6.348 160 6.348Z" fill="white"/>
<path d="M160 12.988C156.128 12.988 152.988 16.128 152.988 20C152.988 23.872 156.128 27.012 160 27.012C163.872 27.012 167.012 23.872 167.012 20C167.012 16.128 163.872 12.988 160 12.988ZM160 24.552C157.488 24.552 155.448 22.516 155.448 20C155.448 17.484 157.488 15.448 160 15.448C162.512 15.448 164.552 17.484 164.552 20C164.552 22.516 162.512 24.552 160 24.552Z" fill="white"/>
<path d="M167.288 14.352C168.194 14.352 168.928 13.6177 168.928 12.712C168.928 11.8063 168.194 11.072 167.288 11.072C166.382 11.072 165.648 11.8063 165.648 12.712C165.648 13.6177 166.382 14.352 167.288 14.352Z" fill="white"/>
<path d="M242.728 13.564C242.424 12.412 241.524 11.508 240.38 11.2C238.308 10.64 230.004 10.64 230.004 10.64C230.004 10.64 221.696 10.64 219.628 11.2C218.484 11.508 217.584 12.412 217.28 13.564C216.72 15.648 216.72 20 216.72 20C216.72 20 216.72 24.352 217.276 26.436C217.58 27.588 218.48 28.492 219.624 28.8C221.696 29.36 230 29.36 230 29.36C230 29.36 238.308 29.36 240.376 28.8C241.52 28.492 242.42 27.588 242.724 26.436C243.28 24.352 243.28 20 243.28 20C243.28 20 243.28 15.648 242.728 13.564ZM227.284 23.948V16.052L234.224 20L227.284 23.948Z" fill="white"/>
</svg>
