<?xml version="1.0" encoding="UTF-8"?>
<svg width="250px" height="40px" viewBox="0 0 250 40" version="1.1" xmlns="http://www.w3.org/2000/svg" xmlns:xlink="http://www.w3.org/1999/xlink">
    <!-- Generator: Sketch 51.3 (57544) - http://www.bohemiancoding.com/sketch -->
    <title>spriteBlack</title>
    <desc>Created with Sketch.</desc>
    <defs></defs>
    <g id="Page-1" stroke="none" stroke-width="1" fill="none" fill-rule="evenodd">
        <g id="Artboard" transform="translate(0.000000, -90.000000)">
            <g id="spriteBlack" transform="translate(0.000000, 90.000000)">
                <g id="Group-3">
                    <rect id="Rectangle-Copy-6" fill="#000000" x="0" y="0" width="250" height="40"></rect>
                    <g id="iconfinder_2018_social_media_popular_app_logo_vkontakte_3225181-copy">
                        <path d="M20,40 C8.956,40 0,31.044 0,20 C0,8.956 8.956,0 20,0 C31.044,0 40,8.956 40,20 C40,31.044 31.044,40 20,40 Z" id="Shape" fill="#FFFFFF" fill-rule="nonzero"></path>
                        <path d="M32.76,13.78 C32.944,13.16 32.76,12.708 31.876,12.708 L28.96,12.708 C28.22,12.708 27.876,13.1 27.692,13.532 C27.692,13.532 26.208,17.148 24.108,19.496 C23.428,20.176 23.12,20.392 22.748,20.392 C22.564,20.392 22.296,20.176 22.296,19.556 L22.296,13.78 C22.296,13.04 22.08,12.708 21.464,12.708 L16.88,12.708 C16.416,12.708 16.136,13.052 16.136,13.38 C16.136,14.084 17.188,14.244 17.296,16.224 L17.296,20.52 C17.296,21.46 17.124,21.632 16.756,21.632 C15.768,21.632 13.364,18 11.936,13.844 C11.656,13.036 11.376,12.712 10.632,12.712 L7.716,12.712 C6.884,12.712 6.716,13.104 6.716,13.536 C6.716,14.308 7.704,18.14 11.32,23.208 C13.732,26.668 17.124,28.544 20.216,28.544 C22.068,28.544 22.3,28.128 22.3,27.408 L22.3,24.792 C22.3,23.96 22.476,23.792 23.064,23.792 C23.496,23.792 24.24,24.008 25.968,25.676 C27.944,27.652 28.272,28.54 29.384,28.54 L32.3,28.54 C33.132,28.54 33.548,28.124 33.308,27.3 C33.044,26.48 32.1,25.292 30.848,23.88 C30.168,23.076 29.148,22.212 28.84,21.78 C28.408,21.224 28.532,20.976 28.84,20.484 C28.836,20.484 32.388,15.48 32.76,13.78 Z" id="Logo" fill="#000000"></path>
                    </g>
                    <g id="iconfinder_2018_social_media_popular_app_logo_facebook_3225194-copy" transform="translate(70.000000, 0.000000)" fill-rule="nonzero">
                        <path d="M20,40 C8.956,40 0,31.044 0,20 C0,8.956 8.956,0 20,0 C31.044,0 40,8.956 40,20 C40,31.044 31.044,40 20,40 Z" id="Shape" fill="#FFFFFF"></path>
                        <path d="M25.2,40 L25.2,24.508 L30.4,24.508 L31.18,18.472 L25.2,18.472 L25.2,14.616 C25.2,12.868 25.684,11.676 28.192,11.676 L31.388,11.676 L31.388,6.28 C30.836,6.208 28.936,6.044 26.728,6.044 C22.12,6.044 18.964,8.856 18.964,14.024 L18.964,18.476 L13.752,18.476 L13.752,24.512 L18.964,24.512 L18.964,40 L25.2,40 Z" id="f" fill="#000000"></path>
                    </g>
                    <g id="iconfinder_2018_social_media_popular_app_logo_instagram_3225191-copy" transform="translate(140.000000, 0.000000)" fill-rule="nonzero">
                        <path d="M20,40 C8.956,40 0,31.044 0,20 C0,8.956 8.956,0 20,0 C31.044,0 40,8.956 40,20 C40,31.044 31.044,40 20,40 Z" id="Shape" fill="#FFFFFF"></path>
                        <g id="Group" transform="translate(6.320000, 6.320000)" fill="#000000">
                            <path d="M13.68,2.488 C17.324,2.488 17.756,2.5 19.196,2.568 C20.528,2.628 21.252,2.852 21.732,3.04 C22.368,3.288 22.824,3.584 23.3,4.06 C23.776,4.536 24.072,4.992 24.32,5.628 C24.508,6.108 24.728,6.832 24.792,8.164 C24.856,9.604 24.872,10.036 24.872,13.68 C24.872,17.324 24.86,17.756 24.792,19.196 C24.732,20.528 24.508,21.252 24.32,21.732 C24.072,22.368 23.776,22.824 23.3,23.3 C22.824,23.776 22.368,24.072 21.732,24.32 C21.252,24.508 20.528,24.728 19.196,24.792 C17.756,24.856 17.324,24.872 13.68,24.872 C10.036,24.872 9.604,24.86 8.164,24.792 C6.832,24.732 6.108,24.508 5.628,24.32 C4.992,24.072 4.536,23.776 4.06,23.3 C3.584,22.824 3.288,22.368 3.04,21.732 C2.852,21.252 2.632,20.528 2.568,19.196 C2.504,17.756 2.488,17.324 2.488,13.68 C2.488,10.036 2.5,9.604 2.568,8.164 C2.628,6.832 2.852,6.108 3.04,5.628 C3.288,4.992 3.584,4.536 4.06,4.06 C4.536,3.584 4.992,3.288 5.628,3.04 C6.108,2.852 6.832,2.632 8.164,2.568 C9.604,2.5 10.036,2.488 13.68,2.488 Z M13.68,0.028 C9.972,0.028 9.508,0.044 8.052,0.112 C6.6,0.18 5.608,0.408 4.736,0.748 C3.84,1.092 3.076,1.56 2.32,2.32 C1.56,3.08 1.096,3.84 0.744,4.74 C0.408,5.608 0.176,6.6 0.108,8.056 C0.04,9.512 0.024,9.976 0.024,13.684 C0.024,17.392 0.04,17.856 0.108,19.312 C0.176,20.764 0.404,21.756 0.744,22.628 C1.092,23.52 1.56,24.284 2.32,25.04 C3.08,25.8 3.84,26.264 4.74,26.616 C5.608,26.952 6.6,27.184 8.056,27.252 C9.512,27.32 9.976,27.336 13.684,27.336 C17.392,27.336 17.856,27.32 19.312,27.252 C20.764,27.184 21.756,26.956 22.628,26.616 C23.52,26.268 24.284,25.8 25.04,25.04 C25.8,24.28 26.264,23.52 26.616,22.62 C26.952,21.752 27.184,20.76 27.252,19.304 C27.32,17.848 27.336,17.384 27.336,13.676 C27.336,9.968 27.32,9.504 27.252,8.048 C27.184,6.596 26.956,5.604 26.616,4.732 C26.268,3.84 25.8,3.076 25.04,2.32 C24.28,1.56 23.52,1.096 22.62,0.744 C21.752,0.408 20.76,0.176 19.304,0.108 C17.852,0.044 17.388,0.028 13.68,0.028 Z" id="Shape"></path>
                            <path d="M13.68,6.668 C9.808,6.668 6.668,9.808 6.668,13.68 C6.668,17.552 9.808,20.692 13.68,20.692 C17.552,20.692 20.692,17.552 20.692,13.68 C20.692,9.808 17.552,6.668 13.68,6.668 Z M13.68,18.232 C11.168,18.232 9.128,16.196 9.128,13.68 C9.128,11.164 11.168,9.128 13.68,9.128 C16.192,9.128 18.232,11.164 18.232,13.68 C18.232,16.196 16.192,18.232 13.68,18.232 Z" id="Shape"></path>
                            <circle id="Oval" cx="20.968" cy="6.392" r="1.64"></circle>
                        </g>
                    </g>
                    <g id="iconfinder_2018_social_media_popular_app_logo_youtube_3225180-copy" transform="translate(210.000000, 0.000000)" fill-rule="nonzero">
                        <path d="M20,40 C8.956,40 0,31.044 0,20 C0,8.956 8.956,0 20,0 C31.044,0 40,8.956 40,20 C40,31.044 31.044,40 20,40 Z" id="Shape" fill="#FFFFFF"></path>
                        <path d="M32.728,13.564 C32.424,12.412 31.524,11.508 30.38,11.2 C28.308,10.64 20.004,10.64 20.004,10.64 C20.004,10.64 11.696,10.64 9.628,11.2 C8.484,11.508 7.584,12.412 7.28,13.564 C6.72,15.648 6.72,20 6.72,20 C6.72,20 6.72,24.352 7.276,26.436 C7.58,27.588 8.48,28.492 9.624,28.8 C11.696,29.36 20,29.36 20,29.36 C20,29.36 28.308,29.36 30.376,28.8 C31.52,28.492 32.42,27.588 32.724,26.436 C33.28,24.352 33.28,20 33.28,20 C33.28,20 33.28,15.648 32.728,13.564 Z M17.284,23.948 L17.284,16.052 L24.224,20 L17.284,23.948 Z" id="Shape" fill="#000000"></path>
                    </g>
                </g>
            </g>
        </g>
    </g>
</svg>